<?xml version="1.0" standalone="no"?>
<!DOCTYPE svg PUBLIC "-//W3C//DTD SVG 20010904//EN"
 "http://www.w3.org/TR/2001/REC-SVG-20010904/DTD/svg10.dtd">
<svg version="1.0" xmlns="http://www.w3.org/2000/svg"
 width="224.000000pt" height="224.000000pt" viewBox="0 0 224.000000 224.000000"
 preserveAspectRatio="xMidYMid meet">
<metadata>
Created by potrace 1.14, written by Peter Selinger 2001-2017
</metadata>
<g transform="translate(0.000000,224.000000) scale(0.100000,-0.100000)"
fill="#000000" stroke="none">
<path d="M1274 2230 c-76 -8 -118 -33 -140 -82 -24 -54 -37 -62 -59 -38 -10
11 -22 20 -27 20 -5 0 -16 7 -25 15 -8 9 -20 14 -27 12 -6 -2 -15 2 -21 10
-11 14 -141 54 -150 45 -2 -3 -44 -6 -92 -7 -108 -2 -103 -1 -103 -23 0 -15
21 -26 94 -50 91 -30 176 -75 176 -93 0 -5 -13 -9 -29 -9 -36 0 -61 -23 -61
-55 0 -13 -6 -25 -12 -28 -10 -3 -10 -9 -1 -25 13 -21 13 -22 -149 -24 l-161
-3 -40 -59 -40 -58 39 -34 c37 -32 38 -34 19 -46 -37 -22 -105 -99 -107 -121
-3 -48 5 -73 37 -117 61 -83 57 -111 -27 -187 -94 -85 -118 -124 -118 -192 0
-72 28 -128 96 -194 45 -43 68 -74 75 -101 14 -51 4 -102 -21 -109 -22 -6 -36
21 -20 37 15 15 12 59 -6 85 -15 20 -22 22 -62 16 -63 -9 -144 -41 -171 -67
-21 -19 -23 -27 -18 -78 14 -133 108 -265 281 -393 40 -30 63 -53 55 -56 -62
-20 -15 -117 78 -161 86 -40 142 -53 174 -39 16 6 33 18 38 26 7 13 11 13 37
0 55 -28 139 -39 309 -42 179 -3 299 11 357 41 27 14 32 14 39 1 16 -28 63
-39 109 -27 150 40 255 147 190 193 -19 13 -17 17 54 71 157 120 256 260 271
381 7 50 5 59 -15 80 -26 27 -102 59 -167 69 -35 5 -46 3 -63 -14 -22 -22 -28
-86 -8 -92 23 -8 0 -36 -25 -31 -31 6 -38 42 -21 109 9 37 24 59 72 103 83 78
107 145 87 246 -6 32 -23 55 -86 115 -50 48 -82 87 -88 108 -9 29 -6 39 36 99
40 59 45 71 40 107 -5 34 -16 50 -63 95 l-58 54 36 32 36 33 -41 61 -40 61
-133 0 -133 0 6 35 c5 30 2 36 -18 43 -13 5 -64 8 -112 7 -63 -2 -87 0 -84 9
2 6 21 16 43 21 65 18 131 54 142 80 7 14 18 25 26 25 9 0 30 13 48 28 18 16
45 32 59 35 29 7 45 35 30 50 -6 6 -33 5 -73 -2 -76 -13 -141 -14 -183 -3 -17
4 -57 5 -91 2z m-310 -291 c14 -7 27 -18 30 -25 8 -21 -127 -20 -144 1 -10 12
-10 16 1 19 8 2 21 7 29 9 26 9 58 7 84 -4z m319 -36 c-7 -2 -21 -2 -30 0 -10
3 -4 5 12 5 17 0 24 -2 18 -5z m-766 -757 c-1 -107 -5 -192 -8 -190 -4 2 -24
32 -45 66 -55 91 -54 137 6 240 25 43 46 77 47 78 1 0 1 -87 0 -194z m1232
141 c79 -140 80 -158 20 -263 -35 -61 -44 -72 -46 -53 -5 53 -8 359 -3 359 3
0 16 -19 29 -43z m-1241 -774 l4 -28 -36 34 c-45 43 -46 54 -3 36 24 -10 33
-20 35 -42z m1276 25 c-16 -18 -35 -38 -41 -46 -11 -11 -13 -7 -13 21 0 30 4
35 33 45 51 16 53 14 21 -20z"/>
</g>
</svg>
